<svg height="830" width="720" xmlns="http://www.w3.org/2000/svg">
<rect height="830" fill="#555" width="720"></rect>
<text fill="#7f7" font-family="Courier New" font-size="12" xml:space="preserve">
<tspan x="10" y="26">70 megabytes installed</tspan>
<tspan x="10" y="42"></tspan>
<tspan x="10" y="58">node_modules</tspan>
<tspan x="10" y="74">└─┬ satelize@0.2.0 </tspan>
<tspan x="10" y="90">  └─┬ maxmind-db-reader@0.2.1 </tspan>
<tspan x="10" y="106">    ├── big-integer@1.6.21 </tspan>
<tspan x="10" y="122">    └─┬ ip-address@4.0.0 </tspan>
<tspan x="10" y="138">      ├─┬ cli@0.6.6 </tspan>
<tspan x="10" y="154">      │ ├── exit@0.1.2 </tspan>
<tspan x="10" y="170">      │ └─┬ glob@3.2.11 </tspan>
<tspan x="10" y="186">      │   ├── inherits@2.0.3 </tspan>
<tspan x="10" y="202">      │   └─┬ minimatch@0.3.0 </tspan>
<tspan x="10" y="218">      │     ├── lru-cache@2.7.3 </tspan>
<tspan x="10" y="234">      │     └── sigmund@1.0.1 </tspan>
<tspan x="10" y="250">      ├─┬ cliff@0.1.10 </tspan>
<tspan x="10" y="266">      │ ├── colors@1.0.3 </tspan>
<tspan x="10" y="282">      │ ├── eyes@0.1.8 </tspan>
<tspan x="10" y="298">      │ └─┬ winston@0.8.3 </tspan>
<tspan x="10" y="314">      │   ├── async@0.2.10 </tspan>
<tspan x="10" y="330">      │   ├── colors@0.6.2 </tspan>
<tspan x="10" y="346">      │   ├── cycle@1.0.3 </tspan>
<tspan x="10" y="362">      │   ├── isstream@0.1.2 </tspan>
<tspan x="10" y="378">      │   ├── pkginfo@0.3.1 </tspan>
<tspan x="10" y="394">      │   └── stack-trace@0.0.9 </tspan>
<tspan x="10" y="410">      ├── jsbn@0.0.0 </tspan>
<tspan x="10" y="426">      ├─┬ lodash.find@3.2.1 </tspan>
<tspan x="10" y="442">      │ ├─┬ lodash._basecallback@3.3.1 </tspan>
<tspan x="10" y="458">      │ │ ├── lodash._baseisequal@3.0.7 </tspan>
<tspan x="10" y="474">      │ │ ├── lodash._bindcallback@3.0.1 </tspan>
<tspan x="10" y="490">      │ │ └── lodash.pairs@3.0.1 </tspan>
<tspan x="10" y="506">      │ ├── lodash._baseeach@3.0.4 </tspan>
<tspan x="10" y="522">      │ ├── lodash._basefind@3.0.0 </tspan>
<tspan x="10" y="538">      │ ├── lodash._basefindindex@3.6.0 </tspan>
<tspan x="10" y="554">      │ ├── lodash.isarray@3.0.4 </tspan>
<tspan x="10" y="570">      │ └── lodash.keys@3.1.2 </tspan>
<tspan x="10" y="586">      ├─┬ lodash.merge@3.3.2 </tspan>
<tspan x="10" y="602">      │ ├── lodash._arraycopy@3.0.0 </tspan>
<tspan x="10" y="618">      │ ├── lodash._arrayeach@3.0.0 </tspan>
<tspan x="10" y="634">      │ ├─┬ lodash._createassigner@3.1.1 </tspan>
<tspan x="10" y="650">      │ │ ├── lodash._isiterateecall@3.0.9 </tspan>
<tspan x="10" y="666">      │ │ └── lodash.restparam@3.6.1 </tspan>
<tspan x="10" y="682">      │ ├── lodash._getnative@3.9.1 </tspan>
<tspan x="10" y="698">      │ ├── lodash.isarguments@3.1.0 </tspan>
<tspan x="10" y="714">      │ ├─┬ lodash.isplainobject@3.2.0 </tspan>
<tspan x="10" y="730">      │ │ └── lodash._basefor@3.0.3 </tspan>
<tspan x="10" y="746">      │ ├── lodash.istypedarray@3.0.6 </tspan>
<tspan x="10" y="762">      │ ├── lodash.keysin@3.0.8 </tspan>
<tspan x="10" y="778">      │ └─┬ lodash.toplainobject@3.0.0 </tspan>
<tspan x="10" y="794">      │   └── lodash._basecopy@3.0.1 </tspan>
<tspan x="10" y="810">      └── sprintf@0.1.5</tspan>
</text>
</svg>
